<svg width="12" height="6" viewBox="0 0 12 6" fill="none" xmlns="http://www.w3.org/2000/svg">
<path d="M10.375 0.219052L5.99999 3.71905L1.62499 0.219052C1.52243 0.136976 1.4047 0.0759048 1.27854 0.0393253C1.15237 0.00274569 1.02024 -0.00862582 0.889679 0.00586012C0.75912 0.0203461 0.632693 0.0604056 0.517615 0.123752C0.402538 0.187098 0.301064 0.27249 0.218988 0.375052C0.136912 0.477615 0.0758403 0.595339 0.0392608 0.721503C0.00268121 0.847668 -0.00869024 0.979802 0.0057957 1.11036C0.0202816 1.24092 0.0603413 1.36735 0.123687 1.48242C0.187033 1.5975 0.272425 1.69898 0.374988 1.78105L5.37499 5.78105C5.55235 5.92306 5.77278 6.00043 5.99999 6.00043C6.22719 6.00043 6.44763 5.92306 6.62499 5.78105L11.625 1.78105C11.8321 1.61529 11.9649 1.37404 11.9942 1.11036C12.0234 0.846685 11.9467 0.582186 11.781 0.375052C11.6989 0.27249 11.5974 0.187098 11.4824 0.123752C11.3673 0.0604056 11.2409 0.0203461 11.1103 0.00586012C10.8466 -0.0233956 10.5821 0.053292 10.375 0.219052Z" fill="black"/>
</svg>
