<svg width="15" height="18" viewBox="0 0 15 18" fill="none" xmlns="http://www.w3.org/2000/svg">
<path d="M14.524 9.85204L1.524 17.852C1.37245 17.9453 1.19877 17.9964 1.02088 18.0001C0.842992 18.0038 0.667331 17.96 0.512024 17.8732C0.356717 17.7864 0.227387 17.6597 0.137381 17.5062C0.0473739 17.3527 -5.0094e-05 17.178 3.97075e-08 17V1.00004C-5.0094e-05 0.822108 0.0473739 0.647387 0.137381 0.493901C0.227387 0.340415 0.356717 0.213724 0.512024 0.126899C0.667331 0.0400731 0.842992 -0.00374195 1.02088 -2.59846e-05C1.19877 0.00368998 1.37245 0.0548024 1.524 0.148038L14.524 8.14804C14.6687 8.23772 14.7881 8.36287 14.8709 8.51161C14.9538 8.66036 14.9972 8.82779 14.9972 8.99804C14.9972 9.16828 14.9538 9.33571 14.8709 9.48446C14.7881 9.63321 14.6687 9.75835 14.524 9.84804V9.85204Z" fill="#02B2D9"/>
</svg>
